<svg xmlns="http://www.w3.org/2000/svg" width="1200" height="630" viewBox="0 0 1200 630" role="img" aria-labelledby="title desc">
  <title id="title">MultiMP3 Web</title><desc id="desc">Your sound, organized. A ChudGPT App.</desc>
  <defs><radialGradient id="g" cx="78%" cy="22%" r="70%"><stop stop-color="#3a245c"/><stop offset="1" stop-color="#0b0c0b"/></radialGradient><linearGradient id="p" x1="0" x2="1"><stop stop-color="#8954ff"/><stop offset="1" stop-color="#c09bff"/></linearGradient></defs>
  <rect width="1200" height="630" fill="url(#g)"/><rect x="42" y="42" width="1116" height="546" rx="28" fill="#141216" stroke="#302b35" stroke-width="2"/>
  <g transform="translate(92 120)"><rect width="118" height="118" rx="24" fill="url(#p)"/><path d="M25 71h12V48H25zm19 22h12V27H44zm19-10h12V38H63zm19-25h12V48H82" fill="#fff"/><text x="0" y="190" fill="#f6f2fb" font-family="Arial,Helvetica,sans-serif" font-size="82" font-weight="700">MultiMP3</text><text x="2" y="245" fill="#c09bff" font-family="Arial,Helvetica,sans-serif" font-size="34">Your sound, organized.</text><text x="2" y="326" fill="#c7ff3e" font-family="monospace" font-size="20" letter-spacing="4">A CHUDGPT APP · WEB EDITION</text></g>
  <g transform="translate(760 145)" fill="none" stroke-linecap="round"><circle cx="170" cy="170" r="154" fill="#0d0b0f" stroke="#302b35" stroke-width="3"/><circle cx="170" cy="170" r="58" fill="url(#p)" stroke="#c09bff" stroke-width="3"/><circle cx="170" cy="170" r="15" fill="#0b0c0b"/><path d="M22 346l22-62 24 44 27-102 27 89 28-137 27 112 27-76 27 107 27-54 26 79 27-31 25 31" stroke="#c7ff3e" stroke-width="10"/></g>
</svg>
